<svg width="862.4000000000001" height="458.70000000000005" xmlns="http://www.w3.org/2000/svg" xmlns:xlink="http://www.w3.org/1999/xlink"><line x1="229.75" y1="7.0" x2="39.0" y2="31.0" style="stroke:black; stroke-width:1px;" />
<line x1="39.0" y1="38.0" x2="39.0" y2="62.0" style="stroke:black; stroke-width:1px;" />
<line x1="229.75" y1="7.0" x2="72.75" y2="31.0" style="stroke:black; stroke-width:1px;" />
<line x1="229.75" y1="7.0" x2="102.5" y2="31.0" style="stroke:black; stroke-width:1px;" />
<line x1="102.5" y1="38.0" x2="102.5" y2="62.0" style="stroke:black; stroke-width:1px;" />
<line x1="229.75" y1="7.0" x2="128.0" y2="31.0" style="stroke:black; stroke-width:1px;" />
<line x1="229.75" y1="7.0" x2="174.5" y2="31.0" style="stroke:black; stroke-width:1px;" />
<line x1="174.5" y1="38.0" x2="174.5" y2="62.0" style="stroke:black; stroke-width:1px;" />
<line x1="229.75" y1="7.0" x2="221.0" y2="31.0" style="stroke:black; stroke-width:1px;" />
<line x1="229.75" y1="7.0" x2="251.5" y2="31.0" style="stroke:black; stroke-width:1px;" />
<line x1="251.5" y1="38.0" x2="251.5" y2="62.0" style="stroke:black; stroke-width:1px;" />
<line x1="229.75" y1="7.0" x2="282.0" y2="31.0" style="stroke:black; stroke-width:1px;" />
<line x1="229.75" y1="7.0" x2="333.5" y2="31.0" style="stroke:black; stroke-width:1px;" />
<line x1="333.5" y1="38.0" x2="333.5" y2="62.0" style="stroke:black; stroke-width:1px;" />
<line x1="229.75" y1="7.0" x2="385.0" y2="31.0" style="stroke:black; stroke-width:1px;" />
<line x1="229.75" y1="7.0" x2="420.5" y2="31.0" style="stroke:black; stroke-width:1px;" />
<line x1="420.5" y1="38.0" x2="420.5" y2="62.0" style="stroke:black; stroke-width:1px;" />
<rect x="0.0" y="62.0" width="78.0" height="14.0" style="fill:orange; stroke:rgb(0,0,0);" rx="1"/>
<text x="2" y="71" style="font-family:sans-serif;font-size:10px;">
demographic
</text>
<rect x="168.0" y="62.0" width="13.0" height="14.0" style="fill:orange; stroke:rgb(0,0,0);" rx="1"/>
<text x="170" y="71" style="font-family:sans-serif;font-size:10px;">
cl
</text>
<rect x="232.0" y="62.0" width="39.0" height="14.0" style="fill:orange; stroke:rgb(0,0,0);" rx="1"/>
<text x="234" y="71" style="font-family:sans-serif;font-size:10px;">
clinicA
</text>
<rect x="216.0" y="31.0" width="10.0" height="14.0" style="fill:orange; stroke:rgb(0,0,0);" rx="1"/>
<text x="218" y="40" style="font-family:sans-serif;font-size:10px;">
_
</text>
<rect x="325.5" y="62.0" width="16.0" height="14.0" style="fill:orange; stroke:rgb(0,0,0);" rx="1"/>
<text x="327" y="71" style="font-family:sans-serif;font-size:10px;">
re
</text>
<rect x="277.0" y="31.0" width="10.0" height="14.0" style="fill:orange; stroke:rgb(0,0,0);" rx="1"/>
<text x="279" y="40" style="font-family:sans-serif;font-size:10px;">
_
</text>
<rect x="140.0" y="31.0" width="69.0" height="14.0" style="fill:orange; stroke:rgb(0,0,0);" rx="1"/>
<text x="142" y="40" style="font-family:sans-serif;font-size:10px;">
shardPrefix
</text>
<rect x="123.0" y="31.0" width="10.0" height="14.0" style="fill:orange; stroke:rgb(0,0,0);" rx="1"/>
<text x="125" y="40" style="font-family:sans-serif;font-size:10px;">
_
</text>
<rect x="233.0" y="31.0" width="37.0" height="14.0" style="fill:orange; stroke:rgb(0,0,0);" rx="1"/>
<text x="235" y="40" style="font-family:sans-serif;font-size:10px;">
shard
</text>
<rect x="294.0" y="31.0" width="79.0" height="14.0" style="fill:orange; stroke:rgb(0,0,0);" rx="1"/>
<text x="296" y="40" style="font-family:sans-serif;font-size:10px;">
releasePrefix
</text>
<rect x="21.5" y="31.0" width="35.0" height="14.0" style="fill:orange; stroke:rgb(0,0,0);" rx="1"/>
<text x="23" y="40" style="font-family:sans-serif;font-size:10px;">
entity
</text>
<rect x="393.5" y="62.0" width="54.0" height="14.0" style="fill:orange; stroke:rgb(0,0,0);" rx="1"/>
<text x="395" y="71" style="font-family:sans-serif;font-size:10px;">
release0
</text>
<rect x="397.0" y="31.0" width="47.0" height="14.0" style="fill:orange; stroke:rgb(0,0,0);" rx="1"/>
<text x="399" y="40" style="font-family:sans-serif;font-size:10px;">
release
</text>
<rect x="89.0" y="31.0" width="27.0" height="14.0" style="fill:orange; stroke:rgb(0,0,0);" rx="1"/>
<text x="91" y="40" style="font-family:sans-serif;font-size:10px;">
part
</text>
<rect x="380.0" y="31.0" width="10.0" height="14.0" style="fill:orange; stroke:rgb(0,0,0);" rx="1"/>
<text x="382" y="40" style="font-family:sans-serif;font-size:10px;">
_
</text>
<rect x="85.0" y="62.0" width="35.0" height="14.0" style="fill:orange; stroke:rgb(0,0,0);" rx="1"/>
<text x="87" y="71" style="font-family:sans-serif;font-size:10px;">
entity
</text>
<rect x="67.75" y="31.0" width="10.0" height="14.0" style="fill:orange; stroke:rgb(0,0,0);" rx="1"/>
<text x="69" y="40" style="font-family:sans-serif;font-size:10px;">
_
</text>
<rect x="196.25" y="0.0" width="67.0" height="14.0" style="fill:orange; stroke:rgb(0,0,0);" rx="1"/>
<text x="198" y="9" style="font-family:sans-serif;font-size:10px;">
indexName
</text>
</svg>